PathFileType	4	(X/Y/Z)	c:/Users/goper/Files/vsCode/490R/osim_files/C10/C10_Fast_04.trc
DataRate	CameraRate	NumFrames	NumMarkers	Units                	OrigDataRate	OrigDataStartFrame	OrigNumFrames
250.00	250.00	6	36	mm	250.0	771	3080
                Frame#	Time	LPSIS			LASIS			LTH1			LTH2			LTH3			LTH4			LLFE			LMFE			LSH1			LSH2			LSH3			LSH4			LLMAL			LMMAL			LCAL			LMTP5			LTOE			LMTP1			RPSIS			RASIS			RTH1			RTH2			RTH3			RTH4			RLFE			RMFE			RSH1			RSH2			RSH3			RSH4			RLMAL			RMMAL			RCAL			RMTP1			RTOE			RMTP5		
		X1	Y1	Z1	X2	Y2	Z2	X3	Y3	Z3	X4	Y4	Z4	X5	Y5	Z5	X6	Y6	Z6	X7	Y7	Z7	X8	Y8	Z8	X9	Y9	Z9	X10	Y10	Z10	X11	Y11	Z11	X12	Y12	Z12	X13	Y13	Z13	X14	Y14	Z14	X15	Y15	Z15	X16	Y16	Z16	X17	Y17	Z17	X18	Y18	Z18	X19	Y19	Z19	X20	Y20	Z20	X21	Y21	Z21	X22	Y22	Z22	X23	Y23	Z23	X24	Y24	Z24	X25	Y25	Z25	X26	Y26	Z26	X27	Y27	Z27	X28	Y28	Z28	X29	Y29	Z29	X30	Y30	Z30	X31	Y31	Z31	X32	Y32	Z32	X33	Y33	Z33	X34	Y34	Z34	X35	Y35	Z35	X36	Y36	Z36

771	3.08000	1501.16785	1016.25018	282.74289	1342.74268	1000.16669	430.88513	0.00000	0.00000	0.00000	1433.20093	727.20392	468.11075	1462.45422	791.65607	473.51974	0.00000	0.00000	0.00000	0.00000	0.00000	0.00000	1464.99683	480.17255	276.14740	0.00000	0.00000	0.00000	0.00000	0.00000	0.00000	1531.67847	409.28622	398.23804	0.00000	0.00000	0.00000	1565.40991	92.95795	343.57666	0.00000	0.00000	0.00000	1629.23071	51.34200	306.57019	1459.65198	32.17253	354.59265	1407.11108	53.88334	291.51053	1449.56812	29.14701	245.00285	1496.16833	1004.85779	207.29811	1339.11340	984.17523	100.91262	1336.66150	719.48773	52.82096	1303.33167	683.67920	60.17684	1283.35095	751.86774	55.65306	1260.23267	716.04779	58.48495	1178.01208	509.06042	125.09220	1155.11951	511.34219	237.41806	1246.37769	414.02823	124.82597	1240.92639	370.50162	122.72375	1186.84448	417.63959	117.98249	1187.62097	372.01331	119.00259	1212.21338	107.42912	169.77905	0.00000	0.00000	0.00000	1270.19128	64.26172	221.51778	0.00000	0.00000	0.00000	1037.62646	81.61714	171.36423	1094.31641	64.21286	119.62441
772	3.08400	1495.24402	1015.78461	281.80002	1349.85681	998.22687	432.52646	0.00000	0.00000	0.00000	1429.59241	726.72552	467.88416	1458.24036	791.02509	473.06018	0.00000	0.00000	0.00000	1465.36462	486.48096	390.96973	1462.33398	479.74509	276.08231	1535.57898	412.98392	398.59296	0.00000	0.00000	0.00000	1478.24402	398.00455	385.08923	0.00000	0.00000	0.00000	1565.26941	93.11117	343.36688	0.00000	0.00000	0.00000	1629.19336	51.50423	306.49472	1459.73938	32.17119	354.55856	1406.73889	53.45208	291.84341	1449.57410	29.11805	244.92567	1490.05615	1004.07019	206.49373	1332.74585	982.78241	100.52354	1330.12183	718.37067	52.41525	1296.90784	682.64423	59.88163	1276.88208	750.42603	55.91578	1253.82153	714.85565	58.44788	1171.84961	507.80740	124.97894	1149.00342	510.36182	236.96414	1237.72327	411.22137	124.67789	1231.03821	367.86392	122.47185	1175.29785	414.72986	118.70144	1178.20251	370.43430	118.74827	1193.71802	105.60712	168.85435	0.00000	0.00000	0.00000	0.00000	0.00000	0.00000	0.00000	0.00000	0.00000	1018.94684	84.80653	171.39940	1074.36145	65.91943	119.24335
773	3.08800	1489.26135	1015.32227	280.94153	1344.53369	997.15845	432.43246	0.00000	0.00000	0.00000	1426.03979	726.21356	467.62384	1454.10718	790.42651	472.60400	0.00000	0.00000	0.00000	1467.91553	485.18253	391.73627	1459.65332	479.34766	275.93213	0.00000	0.00000	0.00000	0.00000	0.00000	0.00000	0.00000	0.00000	0.00000	1578.97888	370.56613	385.63232	1565.15210	93.31676	343.11896	0.00000	0.00000	0.00000	1629.11658	51.70727	306.33499	1459.81653	32.18268	354.57407	1406.97083	53.65508	291.52454	1449.55261	29.08190	244.99355	1470.39990	994.92871	219.09341	1326.84534	981.71130	100.25439	1323.64148	717.20496	52.04010	1290.56226	681.49463	59.58047	1270.33606	748.80304	56.25202	1247.29004	713.44873	58.57251	1165.82568	506.49933	124.79087	1142.93188	509.56934	237.01552	1229.14282	408.51318	124.41732	1221.16162	365.25638	122.22805	1166.72400	413.63705	118.40985	1168.83667	369.00681	118.37698	1175.34290	104.17353	167.87517	0.00000	0.00000	0.00000	0.00000	0.00000	0.00000	0.00000	0.00000	0.00000	999.70325	88.04541	171.86713	1054.45984	67.90141	118.92193
774	3.09200	1483.18677	1014.88885	280.05011	1326.63135	997.11511	430.57361	0.00000	0.00000	0.00000	1422.37122	725.69617	467.34067	1449.81848	789.69769	472.09344	0.00000	0.00000	0.00000	0.00000	0.00000	0.00000	1457.16711	478.90439	275.98538	1519.83142	373.90323	346.15881	0.00000	0.00000	0.00000	0.00000	0.00000	0.00000	1577.17419	370.44681	385.30515	1565.03223	93.56498	342.90363	0.00000	0.00000	0.00000	1629.09961	51.81516	306.24136	0.00000	0.00000	0.00000	1406.61621	53.19693	291.82642	1449.54309	29.00158	244.90112	1463.88306	994.28369	218.47009	1319.86353	979.97015	99.59678	1317.25012	716.00116	51.69294	1284.30786	680.27338	59.26390	1263.99927	747.21594	56.42488	1240.89673	712.09955	58.33242	1159.90198	505.05179	124.55479	1136.97217	508.49405	236.73087	1220.46936	405.74353	124.23075	1211.23083	362.76263	121.97211	1158.16113	412.55112	118.15616	1159.47864	367.71115	117.95374	1157.10339	103.00457	166.80437	0.00000	0.00000	0.00000	1215.13135	59.04525	217.98190	0.00000	0.00000	0.00000	981.09692	91.76299	172.30504	1034.74890	70.09501	118.72041
775	3.09600	1476.98425	1014.37982	279.30264	1321.32495	996.07080	430.49362	0.00000	0.00000	0.00000	0.00000	0.00000	0.00000	1445.50830	788.94537	471.62128	1449.68298	743.47986	464.95755	1458.90662	485.37637	390.60916	1454.44458	478.33752	275.85223	0.00000	0.00000	0.00000	0.00000	0.00000	0.00000	0.00000	0.00000	0.00000	1575.50964	370.41776	384.99570	1564.87610	93.83334	342.70065	0.00000	0.00000	0.00000	1629.00562	51.99482	306.06805	1459.80139	32.04308	354.59274	1406.55627	53.07494	291.84808	1449.49316	28.95319	244.92873	1457.23340	993.60461	217.85953	1313.31604	978.57391	99.15768	1310.88513	714.68414	51.38691	1278.20935	679.02179	58.89971	0.00000	0.00000	0.00000	1234.63184	710.68042	58.15117	1153.95374	503.55209	124.36172	1130.94958	507.21829	236.10300	1211.78284	403.08844	123.98058	1201.41223	360.36859	121.65354	1149.69421	411.54672	117.81089	1150.88342	366.91318	117.01378	1136.33960	101.80791	165.88922	0.00000	0.00000	0.00000	1174.10217	41.33683	215.38858	0.00000	0.00000	0.00000	962.79266	95.71281	172.97433	1015.22986	72.47912	118.73482
776	3.10000	1470.72473	1013.84705	278.54099	1326.02258	994.56146	431.81146	0.00000	0.00000	0.00000	0.00000	0.00000	0.00000	1441.21973	788.20587	471.09888	1445.59216	742.63629	464.65698	1461.44727	484.16638	391.28113	1451.53699	477.77203	275.53534	1516.26550	374.13852	345.66031	0.00000	0.00000	0.00000	0.00000	0.00000	0.00000	1573.73401	370.36069	384.64310	1564.95239	93.87418	342.74939	0.00000	0.00000	0.00000	1628.88269	52.17312	305.85339	1459.76233	31.98215	354.55069	1405.50952	53.40845	290.93973	1449.45020	28.90544	244.89619	1450.54456	992.95410	217.27255	1306.71313	977.12939	98.73672	1304.62903	713.36511	51.08727	1272.16589	677.64551	58.58748	0.00000	0.00000	0.00000	1228.59705	708.96503	58.06398	1148.03491	501.94833	124.15156	1124.65747	506.45572	235.37746	1200.94238	397.86801	126.51326	1191.48364	358.00763	121.21123	1141.17712	410.50339	117.45805	1141.51477	365.76221	116.55696	1118.49731	101.24695	164.77383	0.00000	0.00000	0.00000	1155.11707	39.15280	213.93452	0.00000	0.00000	0.00000	944.73059	100.11187	173.78860	995.92255	74.98942	118.91136
